HIERARCHY
ROOT joint_Root
{
	OFFSET 0.0 0.0 0.0
	CHANNELS 6 Xposition Yposition Zposition Zrotation Xrotation Yrotation 
	JOINT Hips
	{
		OFFSET 4.5925 91.4895 -427.239
		CHANNELS 6 Xposition Yposition Zposition Zrotation Xrotation Yrotation 
		JOINT Spine
		{
			OFFSET 15.7357 0.0 0.0
			CHANNELS 6 Xposition Yposition Zposition Zrotation Xrotation Yrotation 
			JOINT Chest
			{
				OFFSET 8.98455 -0.406207 0.0
				CHANNELS 6 Xposition Yposition Zposition Zrotation Xrotation Yrotation 
				JOINT Neck
				{
					OFFSET 16.3773 0.0 0.0
					CHANNELS 6 Xposition Yposition Zposition Zrotation Xrotation Yrotation 
					JOINT Head
					{
						OFFSET 6.45672 0.0 0.0
						CHANNELS 6 Xposition Yposition Zposition Zrotation Xrotation Yrotation 
						End Site
						{
							OFFSET 0.0 0.0 0.0
						}
					}
				}
				JOINT Shoulder_L
				{
					OFFSET 12.9942 -0.242716 4.98039
					CHANNELS 6 Xposition Yposition Zposition Zrotation Xrotation Yrotation 
					JOINT UpperArm_L
					{
						OFFSET 5.34809 0.0 0.0
						CHANNELS 6 Xposition Yposition Zposition Zrotation Xrotation Yrotation 
						JOINT LowerArm_L
						{
							OFFSET 24.3286 1.87007e-05 0.0
							CHANNELS 6 Xposition Yposition Zposition Zrotation Xrotation Yrotation 
							JOINT Hand_L
							{
								OFFSET 22.2916 0.0 0.0
								CHANNELS 6 Xposition Yposition Zposition Zrotation Xrotation Yrotation 
								End Site
								{
									OFFSET 0.0 0.0 0.0
								}
							}
						}
					}
				}
				JOINT Shoulder_R
				{
					OFFSET 12.9945 -0.242716 -4.98039
					CHANNELS 6 Xposition Yposition Zposition Zrotation Xrotation Yrotation 
					JOINT UpperArm_R
					{
						OFFSET -5.34813 0.0 0.0
						CHANNELS 6 Xposition Yposition Zposition Zrotation Xrotation Yrotation 
						JOINT LowerArm_R
						{
							OFFSET -24.3289 0.000322201 0.0
							CHANNELS 6 Xposition Yposition Zposition Zrotation Xrotation Yrotation 
							JOINT Hand_R
							{
								OFFSET -22.2915 -0.000108084 0.0
								CHANNELS 6 Xposition Yposition Zposition Zrotation Xrotation Yrotation 
								End Site
								{
									OFFSET 0.0 0.0 0.0
								}
							}
						}
					}
				}
			}
		}
		JOINT UpperLeg_L
		{
			OFFSET -2.19248 -6.46944 0.0
			CHANNELS 6 Xposition Yposition Zposition Zrotation Xrotation Yrotation 
			JOINT LowerLeg_L
			{
				OFFSET 39.0811 0.0 -1.23785e-05
				CHANNELS 6 Xposition Yposition Zposition Zrotation Xrotation Yrotation 
				JOINT Foot_L
				{
					OFFSET 40.9854 0.0 -1.26872e-05
					CHANNELS 6 Xposition Yposition Zposition Zrotation Xrotation Yrotation 
					JOINT Toes_L
					{
						OFFSET 11.7543 0.0 0.0
						CHANNELS 6 Xposition Yposition Zposition Zrotation Xrotation Yrotation 
						End Site
						{
							OFFSET 0.0 0.0 0.0
						}
					}
				}
			}
		}
		JOINT UpperLeg_R
		{
			OFFSET -2.19251 6.46944 0.0
			CHANNELS 6 Xposition Yposition Zposition Zrotation Xrotation Yrotation 
			JOINT LowerLeg_R
			{
				OFFSET -39.0811 -0.00228153 -0.0401928
				CHANNELS 6 Xposition Yposition Zposition Zrotation Xrotation Yrotation 
				JOINT Foot_R
				{
					OFFSET -40.9854 0.0 0.0
					CHANNELS 6 Xposition Yposition Zposition Zrotation Xrotation Yrotation 
					JOINT Toes_R
					{
						OFFSET -11.7543 0.0 0.0
						CHANNELS 6 Xposition Yposition Zposition Zrotation Xrotation Yrotation 
						End Site
						{
							OFFSET 0.0 0.0 0.0
						}
					}
				}
			}
		}
	}
}
MOTION
Frames:	4
Frame Time:	0.0333333
0.000000 0.000000 0.000000 0.000000 0.000000 -0.000000 -1.165080 90.317500 0.265095 90.230500 -3.984130 14.829300 15.735700 0.000005 -0.000001 80.667800 81.955200 -79.269300 8.984550 -0.406207 -0.000000 8.150170 -2.592890 2.979340 16.377300 -0.000001 -0.000001 33.065500 -9.494800 1.832950 6.456720 -0.000001 -0.000000 22.856900 -11.717900 2.317450 12.994200 -0.242716 4.980390 -88.701700 -3.739930 -70.839400 5.348090 -0.000007 -0.000001 -60.258700 -35.832100 -81.560800 24.328600 0.000019 0.000005 21.839500 8.733000 -69.251000 22.291600 -0.000001 0.000005 16.166900 5.261240 1.133810 12.994500 -0.242716 -4.980390 88.443500 9.827840 -80.954700 -5.348130 -0.000001 -0.000004 -63.145000 33.957200 -6.667520 -24.328900 0.000322 -0.000009 1.522670 4.845820 -17.478800 -22.291500 -0.000108 -0.000004 12.876900 5.398590 -2.891900 -2.192480 -6.469440 -0.000000 -173.805000 -13.031000 5.894910 39.081100 -0.000007 -0.000012 -0.193669 0.313788 31.683200 40.985400 -0.000006 -0.000013 0.769463 6.686310 -72.347200 11.754300 -0.000000 0.000003 -0.000165 -0.001572 -16.637200 -2.192510 6.469440 -0.000001 171.174000 18.987800 -172.996000 -39.081100 -0.002282 -0.040193 -0.247995 0.407443 31.664800 -40.985400 0.000008 0.000006 3.773210 14.476900 -73.252100 -11.754300 -0.000006 -0.000006 -0.001536 -0.022749 -17.498200
0.000000 0.000000 0.000000 0.000000 0.000000 -0.000000 -1.184560 90.311600 0.330338 90.196400 -4.097800 14.757700 15.735700 0.000005 -0.000001 80.578400 82.076600 -79.228700 8.984550 -0.406207 -0.000000 7.904880 -2.581580 2.875400 16.377300 -0.000001 -0.000001 33.016700 -9.289200 1.702200 6.456720 -0.000001 -0.000000 22.814600 -11.448600 2.107560 12.994200 -0.242716 4.980390 -88.687400 -3.789420 -70.878700 5.348090 -0.000007 -0.000001 -60.192900 -35.765500 -81.517100 24.328600 0.000019 0.000005 21.775100 8.755030 -69.141400 22.291600 -0.000001 0.000005 16.216800 5.264290 1.052030 12.994500 -0.242716 -4.980390 88.469700 9.740520 -81.026900 -5.348130 -0.000001 -0.000004 -63.340300 33.968400 -6.499750 -24.328900 0.000322 -0.000009 1.520980 4.840530 -17.478300 -22.291500 -0.000108 -0.000004 12.923200 5.398540 -2.890000 -2.192480 -6.469440 -0.000000 -173.752000 -13.078300 5.892930 39.081100 -0.000007 -0.000012 -0.195875 0.317343 31.684600 40.985400 -0.000006 -0.000013 0.735015 6.632700 -72.404900 11.754300 -0.000000 0.000003 -0.000170 -0.001614 -16.638700 -2.192510 6.469440 -0.000001 171.249000 18.930200 -173.033000 -39.081100 -0.002282 -0.040193 -0.248758 0.408942 31.648500 -40.985400 0.000008 0.000006 3.788640 14.504700 -73.284800 -11.754300 -0.000006 -0.000006 -0.001314 -0.019766 -17.376900
0.000000 0.000000 0.000000 0.000000 0.000000 -0.000000 -1.207400 90.309200 0.431274 90.165200 -4.240960 14.721600 15.735700 0.000005 -0.000001 80.550700 82.201700 -79.251000 8.984550 -0.406207 -0.000000 7.654950 -2.551660 2.767860 16.377300 -0.000001 -0.000001 32.982400 -9.112660 1.483090 6.456720 -0.000001 -0.000000 22.813200 -11.172100 2.020580 12.994200 -0.242716 4.980390 -88.672400 -3.842990 -70.925900 5.348090 -0.000007 -0.000001 -60.096500 -35.711300 -81.435300 24.328600 0.000019 0.000005 21.725900 8.757120 -69.089300 22.291600 -0.000001 0.000005 16.195700 5.261860 1.117180 12.994500 -0.242716 -4.980390 88.499700 9.630780 -81.102200 -5.348130 -0.000001 -0.000004 -63.552300 34.012400 -6.329130 -24.328900 0.000322 -0.000009 1.511460 4.815250 -17.461100 -22.291500 -0.000108 -0.000004 12.818000 5.399620 -2.925050 -2.192480 -6.469440 -0.000000 -173.688000 -13.104600 5.971510 39.081100 -0.000007 -0.000012 -0.197298 0.320166 31.643200 40.985400 -0.000006 -0.000013 0.692673 6.587810 -72.463900 11.754300 -0.000000 0.000003 -0.000165 -0.001578 -16.637400 -2.192510 6.469440 -0.000001 171.312000 18.815700 -172.986000 -39.081100 -0.002282 -0.040193 -0.250111 0.412122 31.587300 -40.985400 0.000008 0.000006 3.792060 14.526800 -73.323100 -11.754300 -0.000006 -0.000006 -0.001453 -0.021644 -17.453200
0.000000 0.000000 0.000000 0.000000 0.000000 -0.000000 -1.226560 90.296800 0.536284 90.116600 -4.365650 14.673900 15.735700 0.000005 -0.000001 80.583300 82.332000 -79.326300 8.984550 -0.406207 -0.000000 7.397390 -2.503800 2.673680 16.377300 -0.000001 -0.000001 32.904000 -8.968280 1.340620 6.456720 -0.000001 -0.000000 22.827500 -10.963800 1.888290 12.994200 -0.242716 4.980390 -88.663200 -3.885180 -70.996000 5.348090 -0.000007 -0.000001 -59.947700 -35.686400 -81.349900 24.328600 0.000019 0.000005 21.668600 8.762200 -69.022600 22.291600 -0.000001 0.000005 16.155000 5.264060 1.058120 12.994500 -0.242716 -4.980390 88.523300 9.528180 -81.148400 -5.348130 -0.000001 -0.000004 -63.769500 33.970700 -6.181930 -24.328900 0.000322 -0.000009 1.525660 4.880190 -17.395300 -22.291500 -0.000108 -0.000004 12.813200 5.400850 -2.965160 -2.192480 -6.469440 -0.000000 -173.595000 -13.191500 6.024020 39.081100 -0.000007 -0.000012 -0.198484 0.321887 31.659400 40.985400 -0.000006 -0.000013 0.658572 6.544200 -72.559000 11.754300 -0.000000 0.000003 -0.000163 -0.001561 -16.636800 -2.192510 6.469440 -0.000001 171.376000 18.753800 -172.958000 -39.081100 -0.002282 -0.040193 -0.252337 0.416116 31.564300 -40.985400 0.000008 0.000006 3.811850 14.582100 -73.387500 -11.754300 -0.000006 -0.000006 -0.001538 -0.022780 -17.499400
